<?xml version="1.0" standalone="no"?>
<!DOCTYPE svg PUBLIC "-//W3C//DTD SVG 20010904//EN"
 "http://www.w3.org/TR/2001/REC-SVG-20010904/DTD/svg10.dtd">
<svg version="1.0" xmlns="http://www.w3.org/2000/svg"
 width="207.000000pt" height="171.000000pt" viewBox="0 0 207.000000 171.000000"
 preserveAspectRatio="xMidYMid meet">

<g transform="translate(0.000000,171.000000) scale(0.100000,-0.100000)"
fill="#000000" stroke="none">
<path d="M727 1563 c-9 -21 -21 -50 -27 -65 -9 -25 -14 -28 -59 -28 -27 0 -52
-4 -56 -9 -7 -13 27 -31 59 -31 31 0 31 -2 7 -73 -11 -31 -32 -100 -46 -153
-37 -137 -133 -277 -211 -310 -48 -20 -68 -5 -59 45 12 65 116 271 137 271 4
0 8 -10 10 -22 4 -30 25 -34 33 -7 10 31 -37 73 -68 63 -37 -12 -96 -66 -133
-121 -103 -155 -79 -283 54 -283 48 0 109 44 149 108 l28 44 6 -71 c6 -86 28
-115 85 -115 47 0 57 15 80 112 16 73 40 127 85 199 12 18 19 38 17 44 -4 12
-57 -67 -127 -188 -40 -69 -60 -89 -62 -60 -1 6 -3 29 -4 50 -4 39 25 116 98
261 19 39 33 75 31 81 -6 14 44 127 59 137 7 4 31 8 54 8 56 0 63 17 11 25
-56 9 -60 12 -47 37 15 29 4 63 -26 76 -44 20 -61 15 -78 -25z"/>
<path d="M1380 1584 c-193 -52 -323 -234 -307 -433 17 -230 217 -405 441 -388
80 6 167 35 211 71 l30 25 122 -121 c123 -121 143 -133 167 -96 9 15 -7 36
-110 140 l-122 123 39 70 c179 326 -113 705 -471 609z m245 -84 c150 -64 238
-228 206 -382 -7 -35 -24 -83 -38 -108 -26 -46 -71 -100 -84 -100 -3 0 -9 17
-13 38 -3 22 -16 48 -32 63 -24 23 -33 24 -170 27 l-145 3 -34 -34 c-25 -25
-35 -44 -35 -66 0 -17 -4 -31 -8 -31 -18 0 -73 69 -99 125 -24 51 -28 73 -28
145 0 71 4 94 26 140 46 98 118 162 222 196 57 19 169 11 232 -16z m-6 -544
c7 -8 11 -34 9 -57 -3 -42 -5 -44 -48 -57 -49 -15 -157 -11 -202 7 -25 9 -28
16 -28 54 0 24 5 48 12 55 18 18 242 16 257 -2z"/>
<path d="M1412 1330 c-84 -51 -80 -190 7 -235 39 -19 104 -19 142 1 31 15 68
80 69 118 0 34 -38 101 -69 119 -39 23 -108 22 -149 -3z m136 -83 c19 -38 8
-73 -28 -92 -67 -35 -128 40 -84 103 13 19 24 22 57 20 35 -2 44 -8 55 -31z"/>
<path d="M126 1513 c-3 -10 -12 -72 -20 -138 -9 -66 -23 -172 -32 -235 -8 -63
-16 -185 -17 -270 -2 -129 1 -163 16 -202 10 -27 25 -48 33 -48 11 0 14 21 14
103 0 98 15 171 37 186 10 6 34 132 39 206 1 22 8 62 14 88 5 26 15 93 21 148
14 145 0 178 -78 179 -12 0 -24 -8 -27 -17z"/>
<path d="M295 601 c-57 -20 -135 -59 -135 -66 0 -3 18 4 41 15 23 12 43 19 46
17 2 -3 -5 -72 -16 -154 -31 -216 -67 -322 -109 -324 -11 0 -9 -4 8 -10 33
-13 67 3 80 37 6 15 12 56 14 93 1 36 12 109 24 161 11 52 26 123 33 157 11
60 13 63 53 77 22 8 34 15 26 15 -8 0 -37 -8 -65 -18z"/>
<path d="M626 594 c-4 -14 -5 -28 -3 -31 3 -2 8 8 11 23 4 14 5 28 3 31 -3 2
-8 -8 -11 -23z"/>
<path d="M1357 548 c-4 -18 -9 -44 -13 -57 -5 -15 -3 -22 3 -18 6 4 13 21 16
39 3 18 8 41 12 51 4 9 3 17 -3 17 -5 0 -12 -15 -15 -32z"/>
<path d="M125 520 c-3 -5 -2 -10 4 -10 5 0 13 5 16 10 3 6 2 10 -4 10 -5 0
-13 -4 -16 -10z"/>
<path d="M796 488 c-23 -32 -21 -44 24 -131 22 -42 40 -87 40 -100 -1 -44 -49
-81 -88 -66 -16 6 -21 6 -17 -2 11 -17 55 -29 81 -23 14 4 31 19 39 35 25 47
19 93 -19 153 -19 29 -38 65 -42 80 -7 31 9 56 38 56 10 0 16 5 13 10 -11 18
-53 11 -69 -12z"/>
<path d="M1433 483 c-8 -3 -11 -14 -7 -29 8 -31 -30 -94 -57 -94 -10 0 -19 -4
-19 -10 0 -5 -5 -10 -10 -10 -7 0 -9 21 -4 60 6 51 4 60 -8 55 -10 -4 -19 -30
-26 -71 -6 -35 -17 -78 -26 -94 -8 -17 -10 -30 -5 -30 5 0 9 -15 9 -34 0 -46
17 -55 25 -14 10 47 34 90 48 85 6 -2 17 -23 23 -48 10 -36 12 -39 13 -16 1
15 -6 42 -15 58 -15 30 -14 31 20 69 38 43 66 90 66 115 0 15 -6 17 -27 8z"/>
<path d="M1672 477 c-38 -46 -17 -121 44 -160 34 -22 35 -23 29 -74 -6 -47 -4
-53 18 -68 13 -8 32 -13 41 -9 15 6 14 8 -6 18 -20 10 -23 19 -23 71 -1 32 -5
60 -10 62 -34 12 -59 32 -56 44 2 8 9 31 15 52 7 27 7 43 0 55 -14 22 -38 26
-52 9z m36 -45 c4 -26 -16 -65 -29 -57 -10 7 -12 68 -2 79 12 11 28 0 31 -22z"/>
<path d="M350 368 c-37 -78 -42 -164 -11 -192 15 -14 24 -15 40 -6 25 13 27
18 5 16 -23 -2 -38 27 -30 58 5 22 11 26 28 20 21 -6 21 -6 5 10 -9 10 -17 20
-17 24 1 18 48 87 58 85 16 -4 15 8 -2 30 -25 32 -46 20 -76 -45z"/>
<path d="M554 383 c-3 -27 -10 -53 -14 -58 -7 -9 7 -83 24 -125 9 -22 43 -41
61 -34 18 7 39 54 48 106 4 28 1 40 -14 54 -15 14 -22 15 -31 6 -10 -10 -10
-17 0 -32 16 -26 15 -43 -4 -88 l-15 -37 -21 25 c-18 22 -20 34 -15 105 3 44
9 90 13 103 5 16 2 22 -9 22 -11 0 -18 -14 -23 -47z"/>
<path d="M977 412 c-26 -29 -47 -88 -47 -135 0 -49 29 -97 59 -97 28 0 33 12
8 24 -25 13 -34 54 -18 85 7 12 7 22 2 26 -14 8 6 60 36 89 l26 26 -25 0 c-14
0 -32 -8 -41 -18z"/>
<path d="M1147 400 c-14 -16 -28 -44 -32 -62 -4 -18 -13 -43 -21 -55 -8 -13
-10 -23 -4 -23 5 0 16 -16 24 -35 10 -23 24 -37 41 -41 37 -9 40 0 11 29 -30
30 -32 45 -12 73 10 13 11 23 5 31 -11 12 10 62 39 96 14 15 13 17 -6 17 -11
0 -31 -13 -45 -30z"/>
<path d="M1537 398 c-13 -18 -31 -54 -40 -80 -15 -44 -14 -50 4 -87 13 -27 28
-43 45 -47 34 -9 43 3 16 22 -23 16 -29 57 -12 84 5 9 5 19 -1 26 -11 13 9 63
39 97 14 15 13 17 -6 17 -12 0 -31 -14 -45 -32z"/>
<path d="M427 263 c-4 -3 -7 -13 -7 -21 0 -13 2 -13 18 0 9 9 24 18 32 21 9 3
4 6 -11 6 -14 1 -29 -2 -32 -6z"/>
<path d="M1835 199 c-4 -6 -5 -12 -2 -15 2 -3 7 2 10 11 7 17 1 20 -8 4z"/>
<path d="M92 135 c0 -16 2 -22 5 -12 2 9 2 23 0 30 -3 6 -5 -1 -5 -18z"/>
</g>
</svg>
